Coordinates
nRows=4
nColumns=38

# SIMM Motion File Header:
name Coordinates
datacolumns 38
datarows 4
otherdata 1
range 2.41100000000000000000 2.41400000000000010000

Units are S.I. units (second, meters, Newtons, ...)
Angles are in degrees.

endheader
time	pelvis_tilt	pelvis_list	pelvis_rotation	pelvis_tx	pelvis_ty	pelvis_tz	hip_flexion_r	hip_adduction_r	hip_rotation_r	knee_angle_r	ankle_angle_r	subtalar_angle_r	mtp_angle_r	hip_flexion_l	hip_adduction_l	hip_rotation_l	knee_angle_l	ankle_angle_l	subtalar_angle_l	mtp_angle_l	lumbar_extension	lumbar_bending	lumbar_rotation	arm_flex_r	arm_add_r	arm_rot_r	elbow_flex_r	pro_sup_r	wrist_flex_r	wrist_dev_r	arm_flex_l	arm_add_l	arm_rot_l	elbow_flex_l	pro_sup_l	wrist_flex_l	wrist_dev_l
      2.41100000000000000000	     -3.97831176090303270000	     -2.79879629368082570000	     -2.65157092289753040000	      0.77333568945374342000	      0.98332074914912482000	     -0.44291505505615608000	     13.71301480834886800000	      3.84119377986985900000	     -4.52300016066467950000	    -37.64820908190898100000	     13.67671348171817400000	      0.00000000000001736242	      0.00000000000000957703	     25.88977761227771200000	     -5.48078389704593950000	     -0.45836166585129667000	    -80.51092347841169800000	     -6.21904142796414660000	     -0.00000000000000731204	     -0.00000000000002371748	     -6.95146469187422960000	      8.36262938420251700000	     -1.94772331694214570000	    -10.38523032084575000000	    -18.85093279294179800000	      7.31000001276098300000	     99.24475713751252200000	     77.05546463459899100000	      0.00000000000000040525	      0.00000000000000170487	    -20.11540311620307300000	    -35.59547092400326600000	     26.56762049455222300000	    103.73158153476668000000	     73.22106017374675000000	      0.00000000000000047906	      0.00000000000000099297
      2.41199999999999990000	     -4.00160968895470500000	     -2.73701045263621220000	     -2.66475853861081900000	      0.77322600806232822000	      0.98361397076563928000	     -0.44287772252847479000	     13.54237624699023500000	      3.78622933362538960000	     -4.48592661328322250000	    -37.51000569881541200000	     13.59723423212500700000	      0.00000000000001767865	      0.00000000000000966828	     26.03590497587334000000	     -5.41318791759124100000	     -0.48620206861859216000	    -80.38756573927607000000	     -6.14910481207960040000	     -0.00000000000000741664	     -0.00000000000002401516	     -6.92449050056968840000	      8.29347561094932400000	     -1.83100358752532260000	    -10.31276710333808600000	    -18.79892040232542900000	      7.26759238549567850000	     99.39610137395529000000	     77.28623189200077100000	      0.00000000000000039961	      0.00000000000000183883	    -20.30529194014502500000	    -35.66978299253308600000	     26.54858256013107400000	    103.82309070467282000000	     73.09698018478668800000	      0.00000000000000048652	      0.00000000000000098025
      2.41299999999999980000	     -4.02473689825115070000	     -2.67426550771844920000	     -2.67786250693775770000	      0.77312129188422218000	      0.98391604908673969000	     -0.44284205958716277000	     13.37021181917113900000	      3.73023022769821290000	     -4.44799295069427370000	    -37.36935964595551200000	     13.51437067684506000000	      0.00000000000001799423	      0.00000000000000974382	     26.17956370602704700000	     -5.34472936644462490000	     -0.51512257972593689000	    -80.25892213968954500000	     -6.07980725040199400000	     -0.00000000000000751887	     -0.00000000000002429389	     -6.89685375922579700000	      8.22309395948423650000	     -1.71449920215869980000	    -10.24181799560357800000	    -18.74727783971382400000	      7.22490342519407400000	     99.54807852951600500000	     77.51866552784125000000	      0.00000000000000041039	      0.00000000000000199662	    -20.49642852590559600000	    -35.74482713077767900000	     26.52797058799383100000	    103.91751038943916000000	     72.97412130388883600000	      0.00000000000000049353	      0.00000000000000096890
      2.41400000000000010000	     -4.04767695477388310000	     -2.61057034387991700000	     -2.69083541992308950000	      0.77302148301823626000	      0.98422689787454443000	     -0.44280820781629854000	     13.19657685126553700000	      3.67316271268847720000	     -4.40930946559332160000	    -37.22637621743371000000	     13.42807833205015900000	      0.00000000000001829770	      0.00000000000000984908	     26.32074158954742100000	     -5.27539225463180640000	     -0.54506844807811794000	    -80.12500582117058900000	     -6.01116475466335130000	     -0.00000000000000761335	     -0.00000000000002457554	     -6.86858802793416600000	      8.15151525975341330000	     -1.59826575779511980000	    -10.17236464224299300000	    -18.69601148177104800000	      7.18198692713151130000	     99.70061617523200000000	     77.75242079460859700000	      0.00000000000000042885	      0.00000000000000216030	    -20.68876675465470800000	    -35.82055410546343000000	     26.50581411333695000000	    104.01466833878763000000	     72.85253951070828300000	      0.00000000000000050178	      0.00000000000000096081
